HIERARCHY
ROOT Hips
{
	OFFSET 52.133999 -27.186913 86.659492
	CHANNELS 6 Xposition Yposition Zposition Xrotation Yrotation Zrotation
	JOINT spine
	{
		OFFSET 0.000000 -0.393702 6.846367
		CHANNELS 3 Xrotation Yrotation Zrotation
		JOINT spine1
		{
			OFFSET 0.000000 -0.000002 9.496208
			CHANNELS 3 Xrotation Yrotation Zrotation
			JOINT spine2
			{
				OFFSET 0.000000 -0.000002 9.099091
				CHANNELS 3 Xrotation Yrotation Zrotation
				JOINT Neck
				{
					OFFSET 0.000000 -1.113783 23.361214
					CHANNELS 3 Xrotation Yrotation Zrotation
					JOINT Head
					{
						OFFSET 0.000000 0.000000 7.058014
						CHANNELS 3 Xrotation Yrotation Zrotation
						End Site
						{
							OFFSET 0.000000 5.634186 17.084396
						}
					}
				}
				JOINT RightShoulder
				{
					OFFSET -3.831360 0.533491 9.826309
					CHANNELS 3 Xrotation Yrotation Zrotation
					JOINT RightArm
					{
						OFFSET 0.000000 -0.000004 12.888115
						CHANNELS 3 Xrotation Yrotation Zrotation
						JOINT RightArmRoll
						{
							OFFSET 0.000000 0.000000 6.506165
							CHANNELS 3 Xrotation Yrotation Zrotation
							JOINT RightForeArm
							{
								OFFSET 0.000000 -0.000004 18.950104
								CHANNELS 3 Xrotation Yrotation Zrotation
								JOINT RightForeArmRoll
								{
									OFFSET 0.000000 0.000000 7.300919
									CHANNELS 3 Xrotation Yrotation Zrotation
									JOINT RightHand
									{
										OFFSET 0.000000 -0.000004 14.651398
										CHANNELS 3 Xrotation Yrotation Zrotation
										End Site
										{
											OFFSET 0.000000 0.000000 0.100006
										}
									}
								}
							}
						}
					}
				}
				JOINT LeftShoulder
				{
					OFFSET 3.831360 0.533491 9.826309
					CHANNELS 3 Xrotation Yrotation Zrotation
					JOINT LeftArm
					{
						OFFSET 0.000000 -0.000004 12.888115
						CHANNELS 3 Xrotation Yrotation Zrotation
						JOINT LeftArmRoll
						{
							OFFSET 0.000000 0.000000 6.506165
							CHANNELS 3 Xrotation Yrotation Zrotation
							JOINT LeftForeArm
							{
								OFFSET 0.000000 -0.000004 18.950104
								CHANNELS 3 Xrotation Yrotation Zrotation
								JOINT LeftForeArmRoll
								{
									OFFSET 0.000000 0.000000 7.300919
									CHANNELS 3 Xrotation Yrotation Zrotation
									JOINT LeftHand
									{
										OFFSET 0.000000 -0.000004 14.651398
										CHANNELS 3 Xrotation Yrotation Zrotation
										End Site
										{
											OFFSET 0.000000 0.000000 0.100006
										}
									}
								}
							}
						}
					}
				}
			}
		}
	}
	JOINT RightUpLeg
	{
		OFFSET -6.068371 0.933477 -1.112778
		CHANNELS 3 Xrotation Yrotation Zrotation
		JOINT RightUpLegRoll
		{
			OFFSET 0.000000 -0.000004 17.179596
			CHANNELS 3 Xrotation Yrotation Zrotation
			JOINT RightLeg
			{
				OFFSET 0.000000 0.000004 -21.274300
				CHANNELS 3 Xrotation Yrotation Zrotation
				JOINT RightLegRoll
				{
					OFFSET 0.000000 -0.000004 21.343903
					CHANNELS 3 Xrotation Yrotation Zrotation
					JOINT RightFoot
					{
						OFFSET 0.000000 -0.000002 17.765198
						CHANNELS 3 Xrotation Yrotation Zrotation
						JOINT RightToeBase
						{
							OFFSET 0.000000 -0.000004 14.850815
							CHANNELS 3 Xrotation Yrotation Zrotation
							End Site
							{
								OFFSET 0.006294 0.829004 7.192139
							}
						}
					}
				}
			}
		}
	}
	JOINT LeftUpLeg
	{
		OFFSET 6.068371 0.933477 -1.112778
		CHANNELS 3 Xrotation Yrotation Zrotation
		JOINT LeftUpLegRoll
		{
			OFFSET 0.000000 -0.000004 17.179703
			CHANNELS 3 Xrotation Yrotation Zrotation
			JOINT LeftLeg
			{
				OFFSET 0.000000 -0.000004 21.274200
				CHANNELS 3 Xrotation Yrotation Zrotation
				JOINT LeftLegRoll
				{
					OFFSET 0.000000 -0.000002 21.541206
					CHANNELS 3 Xrotation Yrotation Zrotation
					JOINT LeftFoot
					{
						OFFSET 0.000000 -0.000004 17.567902
						CHANNELS 3 Xrotation Yrotation Zrotation
						JOINT LeftToeBase
						{
							OFFSET 0.000000 -0.000002 14.850800
							CHANNELS 3 Xrotation Yrotation Zrotation
							End Site
							{
								OFFSET -0.028210 0.829002 7.192139
							}
						}
					}
				}
			}
		}
	}
}
MOTION
Frames: 5
Frame Time: 0.041667
52.110199 -8.801392 71.860825 40.881995 -6.018119 -6.652236 0.765141 0.475058 0.454029 5.529546 0.960108 0.891118 7.174651 0.970716 0.879553 -11.615732 21.706631 3.685766 20.678101 -15.708907 1.510398 -6.476014 -37.042793 -5.533393 137.683527 -36.063737 83.547065 -0.000003 0.000010 -0.000008 53.542334 -13.078217 12.523049 0.000000 0.000012 -3.000007 -5.000405 -7.999967 0.000013 -19.178155 60.485095 22.651522 114.121382 28.322484 -89.585738 0.000001 0.000002 0.000003 8.831232 41.523326 -7.493234 0.000001 -0.000002 2.992981 -5.000227 8.000668 -0.000040 -93.856027 183.989546 -1.264751 179.999991 0.000004 -0.559005 120.513033 -8.896821 -4.989843 0.000000 -0.000003 0.874487 71.570130 8.705437 -3.086443 25.456957 -7.355614 0.000001 -90.852711 169.829006 -0.764109 -0.000005 -0.000004 -0.394496 -65.755474 12.509639 7.540256 -0.000006 -0.000004 0.783269 79.929080 -8.679202 5.198197 25.456860 7.355621 0.000013 
52.111900 -8.859779 71.956505 40.814202 -6.007594 -6.639623 0.759742 0.469465 0.452605 5.518812 0.948852 0.888191 7.163921 0.959427 0.876763 -11.673190 21.692513 3.698436 20.664558 -15.697380 1.510779 -6.445907 -37.137272 -5.503084 137.593929 -35.952576 83.715416 -0.000003 0.000010 -0.000006 53.196532 -13.343377 12.592002 -0.000002 0.000013 -3.000012 -5.000405 -7.999969 0.000016 -19.244879 60.596414 22.729534 114.091603 28.170994 -90.071016 0.000000 0.000002 0.000002 8.085504 41.471300 -7.135433 -0.000000 -0.000004 2.994572 -5.000223 8.000671 -0.000041 -93.615536 184.017140 -1.272638 179.999991 0.000005 -0.556998 120.713335 -8.924682 -4.983409 0.000000 -0.000003 0.869131 71.542413 8.708715 -3.089743 25.456959 -7.355615 0.000001 -90.612261 169.871791 -0.736744 -0.000003 -0.000005 -0.392741 -65.536649 12.551681 7.506551 -0.000004 -0.000005 0.791690 79.887737 -8.682803 5.195918 25.456860 7.355621 0.000013 
52.115005 -8.914526 72.058716 40.744660 -5.996668 -6.627597 0.754548 0.463901 0.451230 5.508466 0.937660 0.885450 7.153579 0.948201 0.874157 -11.730964 21.677183 3.711166 20.650577 -15.684669 1.511120 -6.417072 -37.230876 -5.474418 137.505450 -35.837183 83.888520 -0.000003 0.000010 -0.000008 52.844159 -13.611058 12.659438 0.000000 0.000015 -3.000011 -5.000408 -7.999965 0.000012 -19.308786 60.706223 22.804142 114.061516 28.023322 -90.557892 0.000000 0.000002 0.000001 7.383147 41.409046 -6.779263 0.000001 -0.000001 2.996889 -5.000228 8.000662 -0.000043 -93.372572 184.044433 -1.279412 179.999991 0.000005 -0.555002 120.914853 -8.951923 -4.976926 0.000001 -0.000002 0.863985 71.514253 8.712205 -3.093372 25.456960 -7.355614 0.000001 -90.369611 169.913619 -0.709985 -0.000005 -0.000004 -0.390949 -65.316935 12.593265 7.472754 -0.000007 -0.000006 0.799855 79.845922 -8.686251 5.193706 25.456861 7.355622 0.000013 
52.109604 -8.971230 72.153915 40.673274 -5.985328 -6.616089 0.749562 0.458371 0.449920 5.498556 0.926538 0.882942 7.143666 0.937051 0.871783 -11.789162 21.660615 3.723970 20.636269 -15.670848 1.511509 -6.389525 -37.323224 -5.447379 137.417450 -35.719168 84.064957 -0.000002 0.000011 -0.000008 52.485188 -13.881027 12.725170 0.000002 0.000013 -3.000014 -5.000409 -7.999964 0.000013 -19.369281 60.814222 22.874648 114.032037 27.879393 -91.048088 0.000000 0.000002 0.000000 6.728640 41.336438 -6.424438 0.000001 -0.000002 3.000009 -5.000225 8.000663 -0.000043 -93.127034 184.071412 -1.284080 179.999991 0.000005 -0.554005 121.117231 -8.978992 -4.970284 0.000001 -0.000003 0.859067 71.485798 8.715803 -3.097258 25.456953 -7.355613 0.000000 -90.124592 169.954368 -0.684050 -0.000006 -0.000005 -0.389110 -65.096156 12.634481 7.439022 -0.000006 -0.000005 0.807743 79.803555 -8.689596 5.191665 25.456861 7.355623 0.000013 
52.104904 -9.024342 72.251526 40.599334 -5.973635 -6.605361 0.744921 0.452896 0.448684 5.489322 0.915534 0.880669 7.134422 0.926019 0.869642 -11.847650 21.642334 3.736792 20.620913 -15.654952 1.511622 -6.363650 -37.414871 -5.422573 137.329682 -35.596576 84.245056 -0.000003 0.000011 -0.000007 52.118930 -14.155255 12.789431 -0.000001 0.000014 -3.000012 -5.000405 -7.999966 0.000010 -19.426596 60.921066 22.941366 114.002168 27.738269 -91.542812 0.000000 0.000002 0.000003 6.115011 41.250770 -6.067716 0.000002 -0.000003 3.003922 -5.000222 8.000666 -0.000041 -92.878053 184.098405 -1.288000 179.999991 0.000005 -0.551997 121.320866 -9.005984 -4.964435 0.000001 -0.000003 0.854423 71.456954 8.719743 -3.102055 25.456955 -7.355613 0.000001 -89.876424 169.993969 -0.659117 -0.000007 -0.000004 -0.387237 -64.873970 12.675575 7.405261 -0.000006 -0.000005 0.815414 79.760415 -8.692901 5.189965 25.456860 7.355621 0.000013 
